# xmcd
#
# Track frame offsets:
# 150
# 17413
# 37658
# 54725
# 73050
# 94284
# 113890
# 136687
# 163033
# 178982
#
# Disc length: 2545 seconds
#
#
# Revision: 0
# Processed by: cddbd v1.5.2PL0 Copyright (c) Steve Scherf et al.
# Submitted via: FreeRIP 2.951 
#
DISCID=8109ef0a
DTITLE=Bunbury and Vegas - EL Tiempo de las cerezas CD2 - El Tiempo de las cerezasCd2
DYEAR=2003
DGENRE=A Cappella
TTITLE0=El rumbo de tus sueños
TTITLE1=Serie Negra
TTITLE2=Welcome To el Callejon Sin Salida
TTITLE3=El Cazador
TTITLE4=De esclavitud y de cadenas
TTITLE5=Bravo
TTITLE6=En La espina dorsal del universo
TTITLE7=La fin
TTITLE8=El tiempo de la Cerezas
TTITLE9=ElRumbo de Tus sueños
EXTD=
EXTT0=
EXTT1=
EXTT2=
EXTT3=
EXTT4=
EXTT5=
EXTT6=
EXTT7=
EXTT8=
EXTT9=
PLAYORDER=
